<svg width="12" height="12" viewBox="0 0 12 12" fill="none" xmlns="http://www.w3.org/2000/svg">
<path d="M6.7831 5.99993L11.3887 1.39438C11.4797 1.2881 11.5272 1.15139 11.5218 1.01157C11.5164 0.871748 11.4585 0.739115 11.3595 0.640174C11.2606 0.541233 11.128 0.48327 10.9881 0.477869C10.8483 0.472469 10.7116 0.520028 10.6053 0.611042L5.99977 5.2166L1.39421 0.605487C1.2896 0.500874 1.14771 0.442102 0.999768 0.442102C0.851823 0.442102 0.709937 0.500874 0.605324 0.605487C0.50071 0.7101 0.441939 0.851986 0.441939 0.999931C0.441939 1.14788 0.50071 1.28976 0.605324 1.39438L5.21643 5.99993L0.605324 10.6055C0.547167 10.6553 0.499934 10.7166 0.466587 10.7855C0.433241 10.8544 0.414502 10.9295 0.411547 11.006C0.408592 11.0825 0.421483 11.1588 0.449414 11.2301C0.477344 11.3014 0.51971 11.3662 0.573851 11.4203C0.627993 11.4744 0.692741 11.5168 0.764033 11.5447C0.835325 11.5727 0.91162 11.5856 0.988131 11.5826C1.06464 11.5796 1.13972 11.5609 1.20864 11.5276C1.27757 11.4942 1.33885 11.447 1.38866 11.3888L5.99977 6.78326L10.6053 11.3888C10.7116 11.4798 10.8483 11.5274 10.9881 11.522C11.128 11.5166 11.2606 11.4586 11.3595 11.3597C11.4585 11.2607 11.5164 11.1281 11.5218 10.9883C11.5272 10.8485 11.4797 10.7118 11.3887 10.6055L6.7831 5.99993Z" fill="#FFFDF5"/>
</svg>
