<svg width="67" height="67" viewBox="0 0 67 67" fill="none" xmlns="http://www.w3.org/2000/svg">
<g filter="url(#filter0_d_125_4629)">
<g filter="url(#filter1_d_125_4629)">
<circle cx="33.5" cy="29.5" r="23.5" fill="#514A7E"/>
</g>
<path d="M34.7831 29.9999L39.3887 25.3944C39.4797 25.2881 39.5272 25.1514 39.5218 25.0116C39.5164 24.8717 39.4585 24.7391 39.3595 24.6402C39.2606 24.5412 39.128 24.4833 38.9881 24.4779C38.8483 24.4725 38.7116 24.52 38.6053 24.611L33.9998 29.2166L29.3942 24.6055C29.2896 24.5009 29.1477 24.4421 28.9998 24.4421C28.8518 24.4421 28.7099 24.5009 28.6053 24.6055C28.5007 24.7101 28.4419 24.852 28.4419 24.9999C28.4419 25.1479 28.5007 25.2898 28.6053 25.3944L33.2164 29.9999L28.6053 34.6055C28.5472 34.6553 28.4999 34.7166 28.4666 34.7855C28.4332 34.8544 28.4145 34.9295 28.4115 35.006C28.4086 35.0825 28.4215 35.1588 28.4494 35.2301C28.4773 35.3014 28.5197 35.3661 28.5739 35.4203C28.628 35.4744 28.6927 35.5168 28.764 35.5447C28.8353 35.5727 28.9116 35.5856 28.9881 35.5826C29.0646 35.5796 29.1397 35.5609 29.2086 35.5276C29.2776 35.4942 29.3389 35.447 29.3887 35.3888L33.9998 30.7833L38.6053 35.3888C38.7116 35.4798 38.8483 35.5274 38.9881 35.522C39.128 35.5166 39.2606 35.4586 39.3595 35.3597C39.4585 35.2607 39.5164 35.1281 39.5218 34.9883C39.5272 34.8485 39.4797 34.7118 39.3887 34.6055L34.7831 29.9999Z" fill="#FFFDF5"/>
</g>
<defs>
<filter id="filter0_d_125_4629" x="0" y="0" width="67" height="67" filterUnits="userSpaceOnUse" color-interpolation-filters="sRGB">
<feFlood flood-opacity="0" result="BackgroundImageFix"/>
<feColorMatrix in="SourceAlpha" type="matrix" values="0 0 0 0 0 0 0 0 0 0 0 0 0 0 0 0 0 0 127 0" result="hardAlpha"/>
<feOffset dy="4"/>
<feGaussianBlur stdDeviation="5"/>
<feComposite in2="hardAlpha" operator="out"/>
<feColorMatrix type="matrix" values="0 0 0 0 0.31816 0 0 0 0 0.289236 0 0 0 0 0.495833 0 0 0 0.4 0"/>
<feBlend mode="normal" in2="BackgroundImageFix" result="effect1_dropShadow_125_4629"/>
<feBlend mode="normal" in="SourceGraphic" in2="effect1_dropShadow_125_4629" result="shape"/>
</filter>
<filter id="filter1_d_125_4629" x="0" y="0" width="67" height="67" filterUnits="userSpaceOnUse" color-interpolation-filters="sRGB">
<feFlood flood-opacity="0" result="BackgroundImageFix"/>
<feColorMatrix in="SourceAlpha" type="matrix" values="0 0 0 0 0 0 0 0 0 0 0 0 0 0 0 0 0 0 127 0" result="hardAlpha"/>
<feOffset dy="4"/>
<feGaussianBlur stdDeviation="5"/>
<feComposite in2="hardAlpha" operator="out"/>
<feColorMatrix type="matrix" values="0 0 0 0 0 0 0 0 0 0 0 0 0 0 0 0 0 0 0.1 0"/>
<feBlend mode="normal" in2="BackgroundImageFix" result="effect1_dropShadow_125_4629"/>
<feBlend mode="normal" in="SourceGraphic" in2="effect1_dropShadow_125_4629" result="shape"/>
</filter>
</defs>
</svg>
